# xmcd CD database file
#
# Track frame offsets:
#	150
#	17482
#	36877
#	55875
#	74827
#	94235
#	114667
#	137032
#	157900
#
# Disc length: 2418 seconds
#
# Revision: 0
# Processed by: cddbd v1.5.1PL0 Copyright (c) Steve Scherf et al.
# Submitted via: CDex 1.51
#
DISCID=79097009
DTITLE=国安わたる - 蒼い冬に
DYEAR=1987
DGENRE=JPop
TTITLE0=追いかけて
TTITLE1=その指にふれた時
TTITLE2=夜明けを待つ少年の心
TTITLE3=Sentimental Moonlight
TTITLE4=灯りは消して
TTITLE5=蒼い冬に
TTITLE6=ものがたり
TTITLE7=褪めゆく季節
TTITLE8=見果てぬ夢
EXTD=YEAR: 1987
EXTT0=
EXTT1=
EXTT2=
EXTT3=
EXTT4=
EXTT5=
EXTT6=
EXTT7=
EXTT8=
PLAYORDER=
